<svg width="50" height="50" viewBox="0 0 50 50" fill="none" xmlns="http://www.w3.org/2000/svg">
<path fill-rule="evenodd" clip-rule="evenodd" d="M45.8333 50C45.8333 50 50 50 50 45.8333C50 41.6667 45.8333 29.1667 25 29.1667C4.16667 29.1667 0 41.6667 0 45.8333C0 50 4.16667 50 4.16667 50H45.8333ZM4.1875 46.0667V46.0583V46.0667ZM4.25833 45.8333H45.7417C45.7612 45.8311 45.7806 45.8283 45.8 45.825L45.8333 45.8167C45.8292 44.7917 45.1917 41.7083 42.3667 38.8833C39.65 36.1667 34.5375 33.3333 25 33.3333C15.4583 33.3333 10.35 36.1667 7.63333 38.8833C4.80833 41.7083 4.175 44.7917 4.16667 45.8167C4.19716 45.8225 4.22772 45.8281 4.25833 45.8333V45.8333ZM45.8167 46.0667V46.0583V46.0667ZM25 20.8333C27.2101 20.8333 29.3298 19.9554 30.8926 18.3926C32.4554 16.8298 33.3333 14.7101 33.3333 12.5C33.3333 10.2899 32.4554 8.17025 30.8926 6.60744C29.3298 5.04464 27.2101 4.16667 25 4.16667C22.7899 4.16667 20.6702 5.04464 19.1074 6.60744C17.5446 8.17025 16.6667 10.2899 16.6667 12.5C16.6667 14.7101 17.5446 16.8298 19.1074 18.3926C20.6702 19.9554 22.7899 20.8333 25 20.8333V20.8333ZM37.5 12.5C37.5 15.8152 36.183 18.9946 33.8388 21.3388C31.4946 23.683 28.3152 25 25 25C21.6848 25 18.5054 23.683 16.1612 21.3388C13.817 18.9946 12.5 15.8152 12.5 12.5C12.5 9.18479 13.817 6.00537 16.1612 3.66117C18.5054 1.31696 21.6848 0 25 0C28.3152 0 31.4946 1.31696 33.8388 3.66117C36.183 6.00537 37.5 9.18479 37.5 12.5V12.5Z" fill="#FFCF24"/>
</svg>
